<svg width="800" height="400" viewBox="0 0 800 400" xmlns="http://www.w3.org/2000/svg">
  <!-- Fond sombre -->
  <rect width="800" height="400" fill="#1e1e2d" rx="10" ry="10" />
  
  <!-- En-tête -->
  <rect x="0" y="0" width="800" height="60" fill="#252536" rx="10" ry="10" />
  <text x="30" y="38" font-family="Arial" font-size="22" fill="#ffffff">Microsoft Purview</text>
  
  <!-- Bouton de thème -->
  <circle cx="750" cy="30" r="15" fill="#3a3a5a" />
  <circle cx="750" cy="30" r="8" fill="#ffcc00" />
  
  <!-- Barre latérale -->
  <rect x="0" y="60" width="200" height="340" fill="#252536" />
  
  <!-- Éléments de menu -->
  <rect x="20" y="90" width="160" height="40" fill="#3a3a5a" rx="5" ry="5" />
  <text x="50" y="115" font-family="Arial" font-size="14" fill="#ffffff">Sources de données</text>
  
  <rect x="20" y="140" width="160" height="40" fill="#1e1e2d" rx="5" ry="5" />
  <text x="50" y="165" font-family="Arial" font-size="14" fill="#a0a0c0">Carte de données</text>
  
  <rect x="20" y="190" width="160" height="40" fill="#1e1e2d" rx="5" ry="5" />
  <text x="50" y="215" font-family="Arial" font-size="14" fill="#a0a0c0">Gouvernance</text>
  
  <rect x="20" y="240" width="160" height="40" fill="#1e1e2d" rx="5" ry="5" />
  <text x="50" y="265" font-family="Arial" font-size="14" fill="#a0a0c0">Insights</text>
  
  <!-- Contenu principal -->
  <rect x="220" y="80" width="560" height="300" fill="#2a2a3c" rx="5" ry="5" />
  
  <!-- Titre de la section -->
  <text x="250" y="120" font-family="Arial" font-size="20" fill="#ffffff">Sources de données</text>
  
  <!-- Cartes de sources -->
  <rect x="250" y="150" width="150" height="100" fill="#3a3a5a" rx="5" ry="5" />
  <text x="280" y="200" font-family="Arial" font-size="16" fill="#ffffff">Azure</text>
  
  <rect x="420" y="150" width="150" height="100" fill="#3a3a5a" rx="5" ry="5" />
  <text x="450" y="200" font-family="Arial" font-size="16" fill="#ffffff">AWS</text>
  
  <rect x="590" y="150" width="150" height="100" fill="#3a3a5a" rx="5" ry="5" />
  <text x="620" y="200" font-family="Arial" font-size="16" fill="#ffffff">GCP</text>
  
  <rect x="250" y="270" width="150" height="100" fill="#3a3a5a" rx="5" ry="5" />
  <text x="270" y="320" font-family="Arial" font-size="16" fill="#ffffff">On-Premise</text>
  
  <rect x="420" y="270" width="150" height="100" fill="#3a3a5a" rx="5" ry="5" />
  <text x="470" y="320" font-family="Arial" font-size="16" fill="#ffffff">SaaS</text>
</svg>