<svg xmlns="http://www.w3.org/2000/svg" viewBox="0 0 48 48" width="48px" height="48px">
    <path fill="#EA4335" d="M24 9.5c3.14 0 5.97 1.16 8.2 3.07l6.15-6.15C34.65 3.16 29.65 1 24 1 14.73 1 6.98 6.48 3.47 14.02l7.14 5.53C12.5 13.4 17.84 9.5 24 9.5z"/>
    <path fill="#34A853" d="M24 44c5.48 0 10.1-1.82 13.47-4.93l-6.15-6.15c-2.2 1.47-5.02 2.33-8.32 2.33-6.16 0-11.5-3.9-13.39-9.33l-7.14 5.53C6.98 41.52 14.73 44 24 44z"/>
    <path fill="#FBBC05" d="M44 24c0-1.33-.13-2.62-.37-3.87H24v7.34h11.47c-.5 2.67-2.02 4.93-4.15 6.47l6.15 6.15C41.02 36.1 44 30.5 44 24z"/>
    <path fill="#4285F4" d="M10.61 28.67C10.07 27.13 9.75 25.43 9.75 23.75s.32-3.38.86-4.92L3.47 14.02C1.91 17.27 1 20.92 1 24s.91 6.73 2.47 9.98l7.14-5.53z"/>
    <path fill="none" d="M0 0h48v48H0z"/>
</svg>